<svg xmlns="http://www.w3.org/2000/svg" xmlns:xlink="http://www.w3.org/1999/xlink" xmlns:sketch="http://www.bohemiancoding.com/sketch/ns" viewBox="0 0 50 50" version="1.1" x="0px" y="0px"><title>icon-b-clear_day</title><desc>Created with Sketch.</desc><g stroke="none" stroke-width="1" fill="none" fill-rule="evenodd" sketch:type="MSPage"><g sketch:type="MSArtboardGroup"><path d="M3,25.5 L8.99999998,25.5" stroke="#000000" stroke-width="2.2" stroke-linecap="round" sketch:type="MSShapeGroup"/><path d="M8,10 L12.2426407,14.2426407" stroke="#000000" stroke-width="2.2" stroke-linecap="round" sketch:type="MSShapeGroup"/><path d="M38,37 L42.2426407,41.2426407" stroke="#000000" stroke-width="2.2" stroke-linecap="round" sketch:type="MSShapeGroup"/><path d="M8,37 L12.2426407,41.2426407" stroke="#000000" stroke-width="2.2" stroke-linecap="round" sketch:type="MSShapeGroup" transform="translate(10.121320, 39.121320) scale(-1, 1) translate(-10.121320, -39.121320) "/><path d="M38.2,9.4 L42.4426407,13.6426407" stroke="#000000" stroke-width="2.2" stroke-linecap="round" sketch:type="MSShapeGroup" transform="translate(40.321320, 11.521320) scale(-1, 1) translate(-40.321320, -11.521320) "/><path d="M41,25.5 L47,25.5" stroke="#000000" stroke-width="2.2" stroke-linecap="round" sketch:type="MSShapeGroup"/><path d="M25.1113664,39.2356257 C32.6195035,39.2356257 38.7129194,33.1505782 38.7129194,25.6356254 C38.7129194,18.1206726 32.6195035,12.035625 25.1113664,12.035625 C17.6032292,12.035625 11.5098133,18.1206726 11.5098133,25.6356254 C11.5098133,33.1505782 17.6032292,39.2356257 25.1113664,39.2356257 L25.1113664,39.2356257 Z M25.1113664,36.212902 C19.248399,36.212902 14.5023931,31.4734139 14.5023931,25.6356254 C14.5023931,19.7978368 19.248399,15.0583488 25.1113664,15.0583488 C30.9743337,15.0583488 35.7203396,19.7978368 35.7203396,25.6356254 C35.7203396,31.4734139 30.9743337,36.212902 25.1113664,36.212902 L25.1113664,36.212902 Z" fill="#000000" sketch:type="MSShapeGroup"/><path d="M25.1,41.5 L25.1,47.5" stroke="#000000" stroke-width="2.2" stroke-linecap="round" sketch:type="MSShapeGroup"/><path d="M25.1,3.5 L25.1,9.5" stroke="#000000" stroke-width="2.2" stroke-linecap="round" sketch:type="MSShapeGroup"/></g></g></svg>