<svg xmlns:dc="http://purl.org/dc/elements/1.1/" xmlns:cc="http://creativecommons.org/ns#" xmlns:rdf="http://www.w3.org/1999/02/22-rdf-syntax-ns#" xmlns:svg="http://www.w3.org/2000/svg" xmlns="http://www.w3.org/2000/svg" xmlns:sodipodi="http://sodipodi.sourceforge.net/DTD/sodipodi-0.dtd" xmlns:inkscape="http://www.inkscape.org/namespaces/inkscape" version="1.1" x="0px" y="0px" viewBox="0 0 100 100"><g transform="translate(0,-952.36218)"><path style="text-indent:0;text-transform:none;direction:ltr;block-progression:tb;baseline-shift:baseline;color:#000000;enable-background:accumulate;" d="m 38.051013,961.3644 a 1.0001,1.0001 0 0 0 -0.1875,0.0625 c -15.75862,6.32382 -26.875,21.5873 -26.875,39.4063 0,23.4839 19.30748,42.5312 43.09375,42.5312 14.22236,0 26.86794,-6.8191 34.71875,-17.3125 a 1.0001,1.0001 0 0 0 -1.1875,-1.5313 c -4.77988,1.9182 -9.98937,3 -15.46875,3 -22.72012,0 -41.125,-18.1431 -41.125,-40.5312 0,-9.00179 2.99831,-17.30424 8.03125,-24.03125 a 1.0001,1.0001 0 0 0 -0.8125,-1.59375 1.0001,1.0001 0 0 0 -0.1875,0 z m -2.5625,3.4375 c -4.03191,6.4695 -6.46875,14.03781 -6.46875,22.1875 0,23.4839 19.33874,42.5312 43.125,42.5312 4.54031,0 8.82804,-0.8994 12.93755,-2.1875 -7.5339,8.5571 -18.59601,14.0313 -31.00005,14.0313 -22.72013,0 -41.09375,-18.1432 -41.09375,-40.5312 0,-15.76035 9.17996,-29.32676 22.5,-36.0313 z" fill="#000000" fill-opacity="1" stroke="none" marker="none" visibility="visible" display="inline" overflow="visible"/></g></svg>