<svg xmlns="http://www.w3.org/2000/svg" xmlns:xlink="http://www.w3.org/1999/xlink" version="1.1" x="0px" y="0px" viewBox="0 0 100 100" enable-background="new 0 0 100 100" xml:space="preserve"><path d="M84,76.1H38.8c-6.7,0-12.1-5.4-12.1-12.1s5.4-12.1,12.1-12.1c0.5,0,1,0,1.5,0.1c0-6.7,5.4-12.1,12.1-12.1  c5.9,0,10.9,4.3,11.9,10c1.7-0.8,3.6-1.2,5.5-1.2c5.1,0,9.7,2.8,11.9,7.3c0.7-0.2,1.5-0.3,2.3-0.3c5.5,0,10,4.6,10,10.2  C94.1,71.6,89.6,76.1,84,76.1z M38.8,54.9c-5,0-9.1,4.1-9.1,9.1s4.1,9.1,9.1,9.1H84c3.9,0,7.1-3.2,7.1-7.1c0-4-3.1-7.2-7-7.2  c-1,0-2,0.3-2.7,0.5c-0.8,0.3-1.6-0.1-1.9-0.9c-1.6-4.1-5.4-6.7-9.7-6.7c-2.1,0-4.2,0.7-5.9,1.9c-0.5,0.3-1.1,0.4-1.6,0.1  c-0.5-0.3-0.8-0.8-0.8-1.3v-0.3c0-5-4.1-9.1-9.1-9.1s-9.1,4.1-9.1,9.1c0,0.5,0.1,1.1,0.2,1.7c0.1,0.5-0.1,1-0.5,1.4  c-0.4,0.3-0.9,0.4-1.4,0.3C40.6,55.1,39.8,54.9,38.8,54.9z"/><path d="M33.3,55H18.9c-5.5,0-10-4.5-10-10c0-5.5,4.5-10,10-10c1,0,2,0.2,3,0.5c0.5,0.2,1,0.1,1.4-0.3c0.4-0.3,0.6-0.8,0.5-1.4  c-0.1-0.6-0.2-1.3-0.2-1.8c0-5.5,4.5-10,10-10s10,4.5,10,10v0.4c0,0.6,0.3,1.1,0.8,1.3C45,34,45.6,34,46,33.6  c1.9-1.4,4.2-2.1,6.5-2.1c4.8,0,8.9,2.9,10.7,7.4c0.3,0.8,1.1,1.1,1.9,0.9c0.7-0.3,1.8-0.6,2.9-0.6c4.3,0,7.8,3.6,7.8,7.9  c0,1.5-0.4,2.9-1.2,4.1c0.9,0.4,1.8,0.9,2.6,1.6c1-1.7,1.6-3.6,1.6-5.7c0-6-4.8-10.9-10.8-10.9c-1,0-1.9,0.1-2.6,0.3  c-2.4-4.9-7.4-8-12.9-8c-2.1,0-4.2,0.5-6.1,1.3c-1-6.2-6.4-10.9-12.8-10.9c-7.2,0-13,5.8-13,13c0,0,0,0.1,0,0.1  c-0.6-0.1-1.2-0.1-1.8-0.1c-7.2,0-13,5.8-13,13c0,7.2,5.8,13,13,13h11.2C30.9,56.8,32,55.8,33.3,55z"/></svg>