<svg xmlns="http://www.w3.org/2000/svg" xmlns:xlink="http://www.w3.org/1999/xlink" version="1.1" x="0px" y="0px" viewBox="0 0 150 150" enable-background="new 0 0 150 150" xml:space="preserve"><text transform="matrix(1 0 0 1 0 161.5273)" font-family="'HelveticaNeue-Bold'" font-size="6">Created by Ricardo Cardoso</text><text transform="matrix(1 0 0 1 0 168.7275)" font-family="'HelveticaNeue-Bold'" font-size="6">from the Noun Project</text><g><path d="M112.5,53.906h-4.688c-7.771,0-14.062,6.29-14.062,14.062c0,1.295,1.051,2.344,2.344,2.344   c1.295,0,2.344-1.049,2.344-2.344c0-5.182,4.193-9.375,9.375-9.375h4.688c7.773,0,14.062,6.29,14.062,14.062   c0,10.363-8.385,18.75-18.75,18.75h-75c-5.184,0-9.377-4.193-9.377-9.375s4.193-9.375,9.377-9.375h0.229H37.5   c0-10.363,8.387-18.75,18.75-18.75c0-12.955,10.482-23.438,23.438-23.438h4.688c10.729,0,19.752,7.194,22.539,17.022   c0.012-0.001,0.021-0.005,0.031-0.005c0.28,0.98,1.174,1.701,2.244,1.701c1.293,0,2.344-1.049,2.344-2.344   c0-0.131-0.02-0.257-0.039-0.382c-0.051-0.186-0.104-0.369-0.158-0.553c-3.441-11.642-14.195-20.128-26.961-20.128h-4.688   c-14.092,0-25.746,10.336-27.803,23.849c-9.344,1.757-16.721,9.042-18.604,18.339h-0.24h-0.229h-0.146v0.008   c-7.705,0.079-13.916,6.332-13.916,14.055c0,7.772,6.289,14.062,14.062,14.062h75c12.955,0,23.438-10.482,23.438-23.438   C131.25,62.293,122.865,53.906,112.5,53.906z"/><path d="M114.845,100.781L114.845,100.781H30.47c-1.295,0-2.344,1.049-2.344,2.344s1.049,2.344,2.344,2.344h84.375l0,0   c1.295-0.001,2.343-1.049,2.343-2.344S116.14,100.782,114.845,100.781z"/><path d="M114.845,110.156L114.845,110.156H30.47c-1.295,0-2.344,1.049-2.344,2.344s1.049,2.344,2.344,2.344h84.375l0,0   c1.295-0.001,2.343-1.049,2.343-2.344S116.14,110.157,114.845,110.156z"/><path d="M114.844,119.531H30.471l0,0c0,0,0,0-0.001,0c-1.295,0-2.344,1.049-2.344,2.344s1.049,2.344,2.344,2.344c0,0,0,0,0.001,0   l0,0h84.373c1.295,0,2.344-1.049,2.344-2.344S116.139,119.531,114.844,119.531z"/></g></svg>