<svg xmlns="http://www.w3.org/2000/svg" xmlns:xlink="http://www.w3.org/1999/xlink" version="1.1" x="0px" y="0px" viewBox="0 0 100 100" style="enable-background:new 0 0 100 100;" xml:space="preserve"><path d="M43.972,26.915c0.71,0,1.284-0.575,1.284-1.285v-8.366c0-0.709-0.574-1.285-1.284-1.285s-1.284,0.576-1.284,1.285v8.366  C42.688,26.34,43.262,26.915,43.972,26.915z"/><path d="M16.168,54.219c0-0.709-0.575-1.285-1.285-1.285H6.518c-0.71,0-1.285,0.576-1.285,1.285c0,0.711,0.575,1.284,1.285,1.284  h8.366C15.594,55.503,16.168,54.93,16.168,54.219z"/><path d="M19.742,32.454c0.251,0.251,0.58,0.376,0.908,0.376s0.657-0.125,0.908-0.376c0.502-0.502,0.502-1.314,0-1.816l-5.916-5.916  c-0.501-0.502-1.314-0.502-1.816,0c-0.501,0.502-0.501,1.314,0,1.816L19.742,32.454z"/><path d="M66.718,32.831c0.328,0,0.657-0.125,0.908-0.376l5.915-5.916c0.502-0.502,0.502-1.314,0-1.816  c-0.501-0.502-1.314-0.502-1.816,0l-5.914,5.916c-0.502,0.502-0.502,1.314,0,1.816C66.061,32.705,66.389,32.831,66.718,32.831z"/><path style="" d="M20.712,75.939l-5.916,5.916c-0.501,0.502-0.501,1.314,0,1.816c0.251,0.251,0.58,0.376,0.908,0.376  s0.657-0.125,0.908-0.376l5.916-5.916c0.502-0.502,0.502-1.314,0-1.816S21.214,75.438,20.712,75.939z" fill="#231F20"/><path d="M88.654,62.992c-2.764-1.381-5.084-1.561-6.479-1.516c0.016-2.512-0.701-7.263-5.681-10.832  c-2.705-1.938-4.815-2.66-7.79-2.66c-0.43,0-0.87,0.018-1.309,0.041C64.404,37.61,54.872,30.382,43.972,30.382  c-13.447,0-24.389,10.941-24.389,24.39c0,10.388,6.461,19.479,16.162,22.945c0.424,2.146,1.317,3.575,2.146,4.463  c1.232,1.324,2.896,2.114,4.455,2.114l42.392-0.001c0,0,0.093,0.005,0.261,0.005c3.657,0,8.336-2.045,9.489-7.812  C94.811,74.882,96.041,66.684,88.654,62.992z M35.534,73.869c-0.025,0.357-0.022,0.682-0.026,1.013  c-8.064-3.375-13.356-11.215-13.356-20.11c0-12.03,9.789-21.82,21.82-21.82c9.596,0,18.004,6.262,20.821,15.337  c-4.249,0.888-8.795,4.997-10.182,7.683c-0.532-0.093-1.256-0.179-2.071-0.179c-1.858,0-3.472,0.433-4.791,1.284  c-3.201,2.064-3.805,5.713-3.896,7.549C40.674,65.545,35.928,68.297,35.534,73.869z M91.969,75.982  c-1.066,5.332-5.604,5.746-6.971,5.746l-42.657-0.004c-0.659,0-1.681-0.341-2.57-1.297c-0.901-0.967-1.923-2.857-1.675-6.377  c0.41-5.791,6.995-7.098,7.272-7.15l1.133-0.211l-0.084-1.148c-0.003-0.044-0.281-4.368,2.725-6.309  c0.897-0.578,2.042-0.873,3.398-0.873c1.292,0,2.294,0.279,2.3,0.281l0.819,0.234l0.536-0.663c0.072-0.091,0.447-0.563,0.685-1.036  c1.062-2.103,5.541-6.189,9.136-6.482c0.889-0.072,1.832-0.139,2.69-0.139c2.11,0,3.737,0.348,6.292,2.178  c5.562,3.988,4.562,9.728,4.518,9.963l-0.387,2.021l1.99-0.535c0.012-0.002,2.643-0.761,6.387,1.108  C93.221,68.146,92.227,74.698,91.969,75.982z"/></svg>