<svg xmlns="http://www.w3.org/2000/svg" xmlns:xlink="http://www.w3.org/1999/xlink" version="1.1" x="0px" y="0px" viewBox="0 0 100 100" enable-background="new 0 0 100 100" xml:space="preserve"><path d="M71.109,51.506c-0.932-4.224-3.577-7.977-7.259-10.299c-0.564-0.355-0.732-1.1-0.377-1.663  c0.356-0.563,1.104-0.731,1.663-0.377c4.223,2.663,7.259,6.971,8.328,11.818c0.144,0.651-0.268,1.294-0.918,1.438  c-0.088,0.02-0.175,0.028-0.261,0.028C71.732,52.451,71.233,52.068,71.109,51.506z M87.638,67.783  c0,5.514-4.732,10.172-10.335,10.172c-0.029,0-0.053-0.015-0.081-0.017H28.614v-0.021c-7.959-0.217-14.372-6.743-14.372-14.756  c0-5.447,2.969-10.202,7.367-12.766c-0.268-0.509-0.522-1.025-0.75-1.553c-0.877-2.038-1.447-4.191-1.694-6.401  c-0.026-0.222-0.048-0.449-0.067-0.678c-0.493-5.995,1.379-11.824,5.271-16.412c3.891-4.588,9.336-7.386,15.331-7.878  c2.407-0.198,4.808-0.014,7.136,0.547c0.647,0.156,1.046,0.807,0.89,1.454c-0.088,0.366-0.342,0.638-0.658,0.791  c-0.07,0.063-0.132,0.135-0.219,0.182c-6.668,3.583-10.727,10.504-10.592,18.06c0.02,1.05,0.123,2.106,0.304,3.138  c0.016,0.092,0.041,0.183,0.059,0.275c4.147-5.609,10.778-9.128,18.118-9.128c12.431,0,22.543,10.113,22.543,22.542  c0,0.793-0.056,1.587-0.139,2.377c0.134-0.005,0.266-0.025,0.399-0.025C83.109,57.688,87.638,62.217,87.638,67.783z M23.074,47.889  c0.215,0.499,0.46,0.989,0.716,1.47c0.392-0.148,0.79-0.284,1.196-0.399c-1.02-2.081-1.72-4.293-2.043-6.61  c-0.055-0.396,0.221-0.761,0.617-0.816c0.394-0.06,0.76,0.221,0.816,0.616c0.318,2.278,1.024,4.447,2.062,6.478  c0.839-0.148,1.698-0.24,2.58-0.24c1.403,0,2.781,0.199,4.112,0.585c0.435-1.485,1-2.904,1.705-4.233  c-0.267-0.879-0.489-1.775-0.648-2.673c-0.203-1.155-0.318-2.336-0.341-3.511c-0.133-7.478,3.402-14.394,9.375-18.672  c-1.102-0.091-2.213-0.095-3.324-0.003c-5.353,0.439-10.214,2.938-13.689,7.034c-3.475,4.097-5.146,9.302-4.706,14.655  c0.016,0.203,0.036,0.402,0.059,0.602C21.783,44.148,22.291,46.071,23.074,47.889z M85.227,67.783c0-4.236-3.448-7.684-7.685-7.684  c-0.658,0-1.305,0.08-1.922,0.24c-0.809,0.207-1.574,0.544-2.275,0.999c-0.558,0.366-1.305,0.205-1.668-0.353  c-0.363-0.559-0.204-1.305,0.354-1.668c0.813-0.529,1.703-0.915,2.63-1.191c0.128-0.924,0.209-1.858,0.209-2.791  c0-11.1-9.031-20.131-20.131-20.131c-9.284,0-17.32,6.284-19.542,15.281c-0.392,1.576-0.591,3.207-0.591,4.85  c0,0.667-0.54,1.206-1.206,1.206c-0.666,0-1.206-0.539-1.206-1.206c0-1.353,0.123-2.698,0.361-4.019  c-1.145-0.341-2.33-0.521-3.538-0.521c-6.817,0-12.364,5.548-12.364,12.365S22.2,75.526,29.017,75.526h48.525v0.005  C81.73,75.4,85.227,71.91,85.227,67.783z M61.957,37.58c-0.531,0-0.961,0.43-0.961,0.961c0,0.531,0.43,0.96,0.961,0.96  c0.532,0,0.961-0.43,0.961-0.96C62.918,38.01,62.489,37.58,61.957,37.58z M24.044,40.027c0-0.396-0.32-0.716-0.716-0.716  s-0.716,0.32-0.716,0.716s0.32,0.716,0.716,0.716S24.044,40.422,24.044,40.027z"/></svg>