<svg xmlns="http://www.w3.org/2000/svg" data-name="Layer 1" viewBox="0 0 100 100" x="0px" y="0px"><title>rain_outline</title><path d="M81.13,59.58H14.81a11.8,11.8,0,1,1,0-23.61,11.68,11.68,0,0,1,2.21.21A14.19,14.19,0,0,1,37.48,24.26,19.36,19.36,0,0,1,76,27.17c0,.52,0,1-.06,1.55a15.87,15.87,0,1,1,5.2,30.87ZM14.81,38a9.8,9.8,0,1,0,0,19.61H81.13a13.87,13.87,0,1,0-6-26.4,1,1,0,0,1-1.41-1.08A16.84,16.84,0,0,0,74,27.17a17.36,17.36,0,0,0-34.68-1.22,1,1,0,0,1-1.54.77A12.19,12.19,0,0,0,19,37c0,.15,0,.29,0,.43a1,1,0,0,1-1.29,1A9.91,9.91,0,0,0,14.81,38Z"/><path d="M15.67,70a1,1,0,0,1-1-1V65a1,1,0,1,1,2,0v4A1,1,0,0,1,15.67,70Z"/><path d="M15.67,81.46a1,1,0,0,1-1-1V74.73a1,1,0,0,1,2,0v5.73A1,1,0,0,1,15.67,81.46Z"/><path d="M15.67,91.2a1,1,0,0,1-1-1v-4a1,1,0,0,1,2,0v4A1,1,0,0,1,15.67,91.2Z"/><path d="M23.3,70a1,1,0,0,1-1-1V65a1,1,0,1,1,2,0v4A1,1,0,0,1,23.3,70Z"/><path d="M23.3,81.46a1,1,0,0,1-1-1V74.73a1,1,0,0,1,2,0v5.73A1,1,0,0,1,23.3,81.46Z"/><path d="M23.3,91.2a1,1,0,0,1-1-1v-4a1,1,0,0,1,2,0v4A1,1,0,0,1,23.3,91.2Z"/><path d="M30.93,70a1,1,0,0,1-1-1V65a1,1,0,0,1,2,0v4A1,1,0,0,1,30.93,70Z"/><path d="M30.93,81.46a1,1,0,0,1-1-1V74.73a1,1,0,0,1,2,0v5.73A1,1,0,0,1,30.93,81.46Z"/><path d="M30.93,91.2a1,1,0,0,1-1-1v-4a1,1,0,0,1,2,0v4A1,1,0,0,1,30.93,91.2Z"/><path d="M46.19,70a1,1,0,0,1-1-1V65a1,1,0,0,1,2,0v4A1,1,0,0,1,46.19,70Z"/><path d="M46.19,81.46a1,1,0,0,1-1-1V74.73a1,1,0,0,1,2,0v5.73A1,1,0,0,1,46.19,81.46Z"/><path d="M46.19,91.2a1,1,0,0,1-1-1v-4a1,1,0,0,1,2,0v4A1,1,0,0,1,46.19,91.2Z"/><path d="M38.56,70a1,1,0,0,1-1-1V65a1,1,0,0,1,2,0v4A1,1,0,0,1,38.56,70Z"/><path d="M38.56,81.46a1,1,0,0,1-1-1V74.73a1,1,0,0,1,2,0v5.73A1,1,0,0,1,38.56,81.46Z"/><path d="M38.56,91.2a1,1,0,0,1-1-1v-4a1,1,0,0,1,2,0v4A1,1,0,0,1,38.56,91.2Z"/><path d="M53.81,70a1,1,0,0,1-1-1V65a1,1,0,0,1,2,0v4A1,1,0,0,1,53.81,70Z"/><path d="M53.81,81.46a1,1,0,0,1-1-1V74.73a1,1,0,0,1,2,0v5.73A1,1,0,0,1,53.81,81.46Z"/><path d="M53.81,91.2a1,1,0,0,1-1-1v-4a1,1,0,0,1,2,0v4A1,1,0,0,1,53.81,91.2Z"/><path d="M61.44,70a1,1,0,0,1-1-1V65a1,1,0,1,1,2,0v4A1,1,0,0,1,61.44,70Z"/><path d="M61.44,81.46a1,1,0,0,1-1-1V74.73a1,1,0,0,1,2,0v5.73A1,1,0,0,1,61.44,81.46Z"/><path d="M61.44,91.2a1,1,0,0,1-1-1v-4a1,1,0,0,1,2,0v4A1,1,0,0,1,61.44,91.2Z"/><path d="M69.07,70a1,1,0,0,1-1-1V65a1,1,0,0,1,2,0v4A1,1,0,0,1,69.07,70Z"/><path d="M69.07,81.46a1,1,0,0,1-1-1V74.73a1,1,0,0,1,2,0v5.73A1,1,0,0,1,69.07,81.46Z"/><path d="M69.07,91.2a1,1,0,0,1-1-1v-4a1,1,0,0,1,2,0v4A1,1,0,0,1,69.07,91.2Z"/><path d="M76.7,70a1,1,0,0,1-1-1V65a1,1,0,0,1,2,0v4A1,1,0,0,1,76.7,70Z"/><path d="M76.7,81.46a1,1,0,0,1-1-1V74.73a1,1,0,0,1,2,0v5.73A1,1,0,0,1,76.7,81.46Z"/><path d="M76.7,91.2a1,1,0,0,1-1-1v-4a1,1,0,0,1,2,0v4A1,1,0,0,1,76.7,91.2Z"/><path d="M84.33,70a1,1,0,0,1-1-1V65a1,1,0,0,1,2,0v4A1,1,0,0,1,84.33,70Z"/><path d="M84.33,81.46a1,1,0,0,1-1-1V74.73a1,1,0,0,1,2,0v5.73A1,1,0,0,1,84.33,81.46Z"/><path d="M84.33,91.2a1,1,0,0,1-1-1v-4a1,1,0,0,1,2,0v4A1,1,0,0,1,84.33,91.2Z"/></svg>