<svg xmlns="http://www.w3.org/2000/svg" xmlns:xlink="http://www.w3.org/1999/xlink" version="1.1" x="0px" y="0px" viewBox="0 0 100 100" enable-background="new 0 0 100 100" xml:space="preserve"><path fill="none" stroke="#000000" stroke-linecap="round" stroke-linejoin="round" stroke-miterlimit="10" d="M72.642,40.621  c-0.037,0-0.074,0.006-0.113,0.006C71.386,29.25,61.784,20.367,50.103,20.367c-9.954,0-18.386,6.463-21.372,15.417  c-0.386-0.03-0.773-0.059-1.167-0.059c-8.208,0-14.863,6.654-14.863,14.862c0,8.209,6.655,14.864,14.863,14.864l0,0h45.079  c6.859,0,12.418-5.557,12.418-12.414C85.06,46.18,79.501,40.621,72.642,40.621z"/><line fill="none" stroke="#000000" stroke-linecap="round" stroke-linejoin="round" stroke-miterlimit="10" x1="58.755" y1="67.693" x2="48.38" y2="78.068"/><line fill="none" stroke="#000000" stroke-linecap="round" stroke-linejoin="round" stroke-miterlimit="10" x1="40.731" y1="67.693" x2="34.378" y2="74.047"/><g><line fill="none" stroke="#000000" stroke-linecap="round" stroke-linejoin="round" stroke-miterlimit="10" x1="44.958" y1="70.627" x2="44.958" y2="73.294"/><line fill="none" stroke="#000000" stroke-linecap="round" stroke-linejoin="round" stroke-miterlimit="10" x1="43.625" y1="71.961" x2="46.291" y2="71.961"/><line fill="none" stroke="#000000" stroke-linecap="round" stroke-linejoin="round" stroke-miterlimit="10" x1="45.869" y1="71.05" x2="44.046" y2="72.871"/><line fill="none" stroke="#000000" stroke-linecap="round" stroke-linejoin="round" stroke-miterlimit="10" x1="45.869" y1="72.871" x2="44.046" y2="71.05"/></g><g><line fill="none" stroke="#000000" stroke-linecap="round" stroke-linejoin="round" stroke-miterlimit="10" x1="64.957" y1="70.204" x2="64.957" y2="72.871"/><line fill="none" stroke="#000000" stroke-linecap="round" stroke-linejoin="round" stroke-miterlimit="10" x1="63.623" y1="71.538" x2="66.29" y2="71.538"/><line fill="none" stroke="#000000" stroke-linecap="round" stroke-linejoin="round" stroke-miterlimit="10" x1="65.868" y1="70.627" x2="64.045" y2="72.448"/><line fill="none" stroke="#000000" stroke-linecap="round" stroke-linejoin="round" stroke-miterlimit="10" x1="65.868" y1="72.448" x2="64.045" y2="70.627"/></g><g><line fill="none" stroke="#000000" stroke-linecap="round" stroke-linejoin="round" stroke-miterlimit="10" x1="40.379" y1="76.946" x2="40.379" y2="79.613"/><line fill="none" stroke="#000000" stroke-linecap="round" stroke-linejoin="round" stroke-miterlimit="10" x1="39.046" y1="78.28" x2="41.713" y2="78.28"/><line fill="none" stroke="#000000" stroke-linecap="round" stroke-linejoin="round" stroke-miterlimit="10" x1="41.291" y1="77.369" x2="39.468" y2="79.19"/><line fill="none" stroke="#000000" stroke-linecap="round" stroke-linejoin="round" stroke-miterlimit="10" x1="41.291" y1="79.19" x2="39.468" y2="77.369"/></g><g><line fill="none" stroke="#000000" stroke-linecap="round" stroke-linejoin="round" stroke-miterlimit="10" x1="60.379" y1="76.523" x2="60.379" y2="79.19"/><line fill="none" stroke="#000000" stroke-linecap="round" stroke-linejoin="round" stroke-miterlimit="10" x1="59.045" y1="77.857" x2="61.712" y2="77.857"/><line fill="none" stroke="#000000" stroke-linecap="round" stroke-linejoin="round" stroke-miterlimit="10" x1="61.29" y1="76.946" x2="59.467" y2="78.768"/><line fill="none" stroke="#000000" stroke-linecap="round" stroke-linejoin="round" stroke-miterlimit="10" x1="61.29" y1="78.768" x2="59.467" y2="76.946"/></g></svg>