<svg xmlns="http://www.w3.org/2000/svg" xmlns:xlink="http://www.w3.org/1999/xlink" version="1.1" x="0px" y="0px" viewBox="0 0 100 100" enable-background="new 0 0 100 100" xml:space="preserve"><g><g><g><g><g><path d="M76.685,32.878c0.181-1.177,0.281-2.374,0.281-3.581c0-9.811-5.945-18.251-14.438-21.914       c-0.977-0.433-1.982-0.795-3.019-1.066c-2.032-0.584-4.206-0.895-6.429-0.895c-10.322,0-19.479,6.67-22.678,16.379       c-0.241-0.011-0.463-0.021-0.674-0.021c-0.996,0-1.952,0.091-2.889,0.272c-1.176,0.211-2.293,0.563-3.359,1.025       c-5.564,2.415-9.468,7.959-9.468,14.407c0,8.28,6.47,15.163,14.679,15.666c0.01,0,0.01,0,0.021,0       c-0.152-0.463-0.223-0.937-0.223-1.419c0-0.543,0.091-1.076,0.281-1.6c-6.59-0.493-11.74-6.007-11.74-12.647       c0-5.754,3.854-10.624,9.125-12.174c1.137-0.331,2.324-0.513,3.572-0.513c0.533,0,1.046,0.04,1.549,0.101l0.201,0.03       l1.107,0.141l0.361-1.268C35.404,14.758,43.685,8.44,53.082,8.44c2.174,0,4.286,0.332,6.258,0.956       c0.996,0.312,1.952,0.704,2.877,1.157c6.933,3.391,11.732,10.514,11.732,18.744c0,1.6-0.191,3.169-0.534,4.688l-0.463,1.932       l1.982-0.08c0.171-0.01,0.352-0.01,0.522-0.01c3.945,0,7.174,3.209,7.174,7.173c0,3.954-3.229,7.164-7.133,7.174l-0.191-0.02       h-4.578C70.91,50.667,71,51.2,71,51.733c0,0.492-0.08,0.977-0.221,1.448h4.678c5.614,0,10.192-4.567,10.192-10.182       C85.649,37.798,81.726,33.493,76.685,32.878z"/></g></g><g><g><g><path d="M46.128,55.298c0.584,0.608,1.305,1.063,2.119,1.33l-1.098,1.75l0.875,7.139        c0.086,0.687-0.402,1.313-1.081,1.391c-0.3,0.042-0.583-0.026-0.815-0.172c-0.316-0.197-0.531-0.523-0.583-0.909l-0.497-4.084        l-3.535,5.662c-0.361,0.584-1.141,0.764-1.717,0.403c-0.291-0.188-0.488-0.48-0.558-0.78        c-0.067-0.309-0.025-0.661,0.154-0.952l3.536-5.655l-3.879,1.348c-0.378,0.12-0.764,0.068-1.081-0.129        c-0.231-0.146-0.413-0.369-0.507-0.652c-0.231-0.652,0.121-1.364,0.772-1.579l6.796-2.351L46.128,55.298z"/></g><g><path d="M53.535,55.298l1.098,1.759l6.796,2.351c0.651,0.215,1.004,0.936,0.78,1.588        c-0.094,0.283-0.283,0.498-0.515,0.644c-0.317,0.197-0.703,0.257-1.072,0.129l-3.888-1.339l3.536,5.655        c0.188,0.291,0.223,0.635,0.154,0.943c-0.069,0.309-0.266,0.592-0.558,0.78c-0.575,0.353-1.348,0.181-1.707-0.395        l-3.545-5.663l-0.497,4.076c-0.043,0.395-0.267,0.712-0.583,0.909c-0.232,0.146-0.507,0.214-0.807,0.18        c-0.678-0.086-1.176-0.712-1.082-1.398l0.867-7.139l-1.099-1.75C52.222,56.362,52.951,55.907,53.535,55.298z"/></g><g><path d="M37.179,45.962l5.596,4.522h2.076c-0.111,0.395-0.164,0.814-0.164,1.252        c0,0.43,0.053,0.841,0.155,1.245h-2.067l-5.596,4.521c-0.531,0.438-1.321,0.352-1.75-0.18        c-0.188-0.232-0.283-0.507-0.283-0.781c0-0.369,0.164-0.729,0.463-0.979l3.201-2.582h-6.676c-0.687,0-1.252-0.566-1.252-1.245        c0-0.343,0.145-0.66,0.367-0.884c0.225-0.223,0.542-0.368,0.885-0.368h6.676l-3.201-2.583        c-0.299-0.249-0.463-0.609-0.463-0.979c0-0.274,0.095-0.549,0.283-0.78C35.858,45.611,36.648,45.525,37.179,45.962z"/></g><g><path d="M64.242,46.143c0.189,0.231,0.275,0.506,0.275,0.78c0,0.369-0.154,0.729-0.463,0.979l-3.192,2.583        h6.675c0.344,0,0.652,0.146,0.876,0.368c0.231,0.224,0.369,0.541,0.369,0.884c0,0.679-0.558,1.245-1.245,1.245h-6.675        l3.192,2.582c0.309,0.249,0.463,0.609,0.463,0.979c0,0.274-0.086,0.549-0.275,0.781c-0.428,0.531-1.227,0.617-1.758,0.18        l-5.595-4.521h-2.068c0.103-0.404,0.155-0.815,0.155-1.245c0-0.438-0.053-0.857-0.164-1.252h2.077l5.595-4.522        C63.015,45.525,63.814,45.611,64.242,46.143z"/></g><g><path d="M59.875,35.667c0.575,0.359,0.764,1.132,0.396,1.716l-3.536,5.654l3.888-1.338        c0.369-0.13,0.755-0.069,1.072,0.128c0.231,0.146,0.421,0.36,0.515,0.644c0.224,0.652-0.129,1.373-0.78,1.588l-6.796,2.351        l-1.098,1.759c-0.584-0.601-1.313-1.063-2.12-1.321l1.099-1.759l-0.867-7.139c-0.094-0.687,0.404-1.313,1.082-1.398        c0.3-0.035,0.574,0.033,0.807,0.18c0.316,0.198,0.54,0.515,0.583,0.909l0.497,4.076l3.545-5.663        c0.18-0.292,0.463-0.472,0.771-0.541C59.249,35.434,59.583,35.486,59.875,35.667z"/></g><g><path d="M40.732,35.511c0.309,0.069,0.6,0.258,0.781,0.55l3.535,5.663l0.497-4.085        c0.052-0.386,0.267-0.711,0.583-0.909c0.232-0.146,0.516-0.215,0.815-0.172c0.679,0.077,1.167,0.704,1.073,1.391l-0.867,7.139        l1.098,1.759c-0.814,0.258-1.535,0.721-2.119,1.321l-1.098-1.759l-6.796-2.351c-0.651-0.215-0.995-0.927-0.772-1.579        c0.094-0.283,0.275-0.507,0.507-0.652c0.317-0.197,0.703-0.249,1.072-0.128l3.888,1.347l-3.536-5.654        c-0.36-0.584-0.18-1.365,0.396-1.725C40.08,35.486,40.423,35.434,40.732,35.511z"/></g></g><g><g><path d="M48.248,46.846c-0.814,0.258-1.535,0.721-2.119,1.321c-0.609,0.635-1.063,1.425-1.277,2.317        c-0.111,0.395-0.164,0.814-0.164,1.252c0,0.43,0.053,0.841,0.155,1.245c0.214,0.883,0.669,1.682,1.286,2.316        c0.584,0.608,1.305,1.063,2.119,1.33c0.498,0.163,1.03,0.248,1.58,0.248c0.558,0,1.09-0.085,1.587-0.248        c0.808-0.267,1.536-0.722,2.12-1.33c0.617-0.635,1.072-1.434,1.286-2.316c0.103-0.404,0.155-0.815,0.155-1.245        c0-0.438-0.053-0.857-0.164-1.252c-0.214-0.893-0.668-1.683-1.277-2.317c-0.584-0.601-1.313-1.063-2.12-1.321        c-0.497-0.163-1.029-0.248-1.587-0.248C49.278,46.598,48.746,46.683,48.248,46.846z M49.957,49.18        c1.355,0.06,2.445,1.184,2.445,2.557c0,0.446-0.12,0.875-0.318,1.245c-0.428,0.755-1.209,1.27-2.119,1.313        c-0.043,0.008-0.095,0.008-0.137,0.008c-0.043,0-0.086,0-0.121-0.008c-0.909-0.043-1.699-0.558-2.127-1.313        c-0.197-0.37-0.318-0.799-0.318-1.245c0-1.381,1.1-2.505,2.455-2.557c0.033-0.008,0.077-0.008,0.111-0.008        C49.87,49.172,49.913,49.172,49.957,49.18z"/></g></g></g></g><g><g><g><path d="M25.48,85.82c0.439,0.458,0.98,0.8,1.594,1l-0.825,1.316l0.657,5.369       c0.064,0.516-0.303,0.986-0.813,1.045c-0.226,0.031-0.438-0.021-0.613-0.129c-0.238-0.148-0.4-0.394-0.438-0.685l-0.375-3.071       l-2.657,4.259c-0.271,0.439-0.858,0.574-1.291,0.303c-0.22-0.142-0.367-0.36-0.42-0.587c-0.051-0.232-0.019-0.496,0.116-0.716       l2.659-4.252l-2.917,1.013c-0.284,0.091-0.574,0.052-0.813-0.097c-0.174-0.109-0.309-0.277-0.381-0.49       c-0.174-0.491,0.092-1.027,0.582-1.188l5.109-1.768L25.48,85.82z"/></g><g><path d="M31.05,85.82l0.824,1.323l5.111,1.768c0.49,0.16,0.755,0.703,0.586,1.193       c-0.07,0.213-0.213,0.375-0.387,0.484c-0.238,0.148-0.529,0.193-0.806,0.097l-2.924-1.007l2.659,4.253       c0.141,0.219,0.167,0.477,0.115,0.709c-0.051,0.232-0.199,0.445-0.42,0.587c-0.432,0.266-1.013,0.137-1.283-0.296l-2.664-4.259       l-0.375,3.064c-0.032,0.297-0.199,0.536-0.438,0.685c-0.176,0.108-0.382,0.16-0.607,0.135c-0.51-0.064-0.885-0.535-0.813-1.051       l0.651-5.369l-0.826-1.316C30.062,86.62,30.611,86.278,31.05,85.82z"/></g><g><path d="M18.75,78.799l4.207,3.4h1.562c-0.084,0.297-0.123,0.613-0.123,0.942c0,0.322,0.039,0.632,0.117,0.936       h-1.556l-4.207,3.4c-0.4,0.329-0.994,0.265-1.317-0.136c-0.141-0.174-0.213-0.381-0.213-0.587c0-0.277,0.123-0.549,0.349-0.735       l2.407-1.942h-5.02c-0.517,0-0.942-0.426-0.942-0.936c0-0.259,0.109-0.497,0.276-0.664c0.169-0.169,0.407-0.278,0.666-0.278       h5.02l-2.407-1.941c-0.226-0.188-0.349-0.459-0.349-0.736c0-0.206,0.072-0.413,0.213-0.587       C17.756,78.535,18.35,78.47,18.75,78.799z"/></g><g><path d="M39.102,78.935c0.142,0.174,0.206,0.381,0.206,0.587c0,0.277-0.115,0.549-0.348,0.736l-2.4,1.941h5.02       c0.258,0,0.49,0.109,0.658,0.278c0.174,0.167,0.277,0.405,0.277,0.664c0,0.51-0.42,0.936-0.936,0.936h-5.02l2.4,1.942       c0.232,0.187,0.348,0.458,0.348,0.735c0,0.206-0.064,0.413-0.206,0.587c-0.323,0.4-0.923,0.465-1.323,0.136l-4.207-3.4h-1.555       c0.076-0.304,0.115-0.613,0.115-0.936c0-0.329-0.039-0.646-0.123-0.942h1.563l4.207-3.4       C38.179,78.47,38.779,78.535,39.102,78.935z"/></g><g><path d="M35.818,71.056c0.432,0.271,0.574,0.852,0.297,1.291l-2.659,4.252l2.924-1.007       c0.276-0.097,0.567-0.052,0.806,0.097c0.174,0.109,0.316,0.271,0.387,0.484c0.169,0.49-0.096,1.032-0.586,1.193l-5.111,1.768       l-0.824,1.323c-0.439-0.452-0.988-0.8-1.596-0.993l0.826-1.323l-0.651-5.368c-0.071-0.517,0.304-0.987,0.813-1.052       c0.226-0.026,0.432,0.025,0.607,0.136c0.238,0.147,0.405,0.386,0.438,0.684l0.375,3.064l2.664-4.259       c0.137-0.219,0.348-0.354,0.581-0.406C35.346,70.881,35.598,70.921,35.818,71.056z"/></g><g><path d="M21.421,70.94c0.232,0.052,0.451,0.193,0.588,0.413l2.657,4.259l0.375-3.071       c0.038-0.29,0.2-0.536,0.438-0.684c0.176-0.11,0.388-0.162,0.613-0.13c0.51,0.059,0.877,0.529,0.807,1.046l-0.651,5.368       l0.825,1.323c-0.613,0.193-1.154,0.541-1.594,0.993l-0.826-1.323l-5.109-1.768c-0.49-0.161-0.749-0.697-0.582-1.188       c0.072-0.213,0.207-0.381,0.381-0.49c0.239-0.148,0.529-0.188,0.807-0.097l2.924,1.014l-2.659-4.253       c-0.271-0.438-0.135-1.026,0.298-1.297C20.931,70.921,21.19,70.881,21.421,70.94z"/></g></g><g><g><path d="M27.074,79.464c-0.613,0.193-1.154,0.541-1.594,0.993c-0.458,0.478-0.801,1.071-0.961,1.742       c-0.084,0.297-0.123,0.613-0.123,0.942c0,0.322,0.039,0.632,0.117,0.936c0.16,0.665,0.503,1.265,0.967,1.742       c0.439,0.458,0.98,0.8,1.594,1c0.375,0.123,0.775,0.188,1.188,0.188c0.42,0,0.82-0.064,1.193-0.188       c0.607-0.2,1.156-0.542,1.596-1c0.463-0.478,0.806-1.077,0.967-1.742c0.076-0.304,0.115-0.613,0.115-0.936       c0-0.329-0.039-0.646-0.123-0.942c-0.16-0.671-0.502-1.265-0.959-1.742c-0.439-0.452-0.988-0.8-1.596-0.993       c-0.373-0.123-0.773-0.188-1.193-0.188C27.849,79.277,27.449,79.341,27.074,79.464z M28.358,81.219       c1.021,0.045,1.839,0.891,1.839,1.923c0,0.336-0.09,0.657-0.238,0.936c-0.322,0.567-0.91,0.955-1.594,0.987       c-0.032,0.007-0.072,0.007-0.104,0.007s-0.064,0-0.09-0.007c-0.685-0.032-1.277-0.42-1.601-0.987       c-0.148-0.278-0.239-0.6-0.239-0.936c0-1.039,0.826-1.885,1.846-1.923c0.026-0.006,0.059-0.006,0.084-0.006       C28.292,81.213,28.326,81.213,28.358,81.219z"/></g></g></g></g></g></svg>