<svg xmlns="http://www.w3.org/2000/svg" xmlns:xlink="http://www.w3.org/1999/xlink" xmlns:sketch="http://www.bohemiancoding.com/sketch/ns" viewBox="0 0 98 97" version="1.1" x="0px" y="0px"><title>Wind</title><desc>Created with Sketch.</desc><g stroke="none" stroke-width="1" fill="none" fill-rule="evenodd" sketch:type="MSPage"><g sketch:type="MSArtboardGroup" transform="translate(-193.000000, -76.000000)" stroke="#000000" stroke-width="2"><g sketch:type="MSLayerGroup" transform="translate(194.500000, 77.500000)"><path d="M15.8784128,55.9920014 C15.7126237,55.9973203 15.5461721,56 15.3790984,56 C6.88545687,56 0,49.0745026 0,40.5314685 C0,33.3268507 4.89700322,27.2726404 11.5257748,25.5524792 C10.6326377,23.96198 10.1229508,22.1247741 10.1229508,20.1678322 C10.1229508,14.1120106 15.003781,9.2027972 21.0245902,9.2027972 C22.8330619,9.2027972 24.5386822,9.64571756 26.0400736,10.4295914 L26.0400736,10.4295914 C30.8823758,4.11261652 38.77745,0 47.6946721,0 C58.3752765,0 67.5895019,5.89998226 71.848129,14.4209886 L71.848129,14.4209886 C76.243623,15.8345941 79.4262295,19.9770333 79.4262295,24.8671329 C79.4262295,25.8881912 79.2874745,26.8766532 79.0278954,27.8144835 C79.2246402,27.8076456 79.4223314,27.8041958 79.6209016,27.8041958 C88.1145431,27.8041958 95,34.1160416 95,41.9020979 C95,49.6881542 88.1145431,56 79.6209016,56 C79.6151424,56 79.6093839,55.9999971 79.6036261,55.9999913 C79.5978761,55.999992 79.5921165,56 79.586355,56 L16.1923335,56 C16.0870456,56 15.9823838,55.9973121 15.8784128,55.9920014 Z" sketch:type="MSShapeGroup"/><path d="M17.2523068,76.833024 C17.2523068,76.833024 25.2880779,68.8599224 36.136325,68.8599224 C45.8867623,68.8599224 47.3477834,76.4815303 56.0400562,78.3863668 C66.3329969,80.6419759 77.7476932,74.0094127 77.7476932,74.0094127" stroke-linecap="round" sketch:type="MSShapeGroup"/><path d="M17.2523068,92.2842351 C17.2523068,92.2842351 25.2880779,84.3111336 36.136325,84.3111336 C45.8867623,84.3111336 47.3477834,91.9327415 56.0400562,93.837578 C66.3329969,96.093187 77.7476932,89.4606238 77.7476932,89.4606238" stroke-linecap="round" sketch:type="MSShapeGroup"/></g></g></g></svg>